<mxfile host="app.diagrams.net" modified="2023-10-04T21:37:24.847Z" agent="Mozilla/5.0 (Windows NT 10.0; Win64; x64; rv:109.0) Gecko/20100101 Firefox/118.0" etag="qY4joOvnnnpME8S7UQVw" version="22.0.2" type="device">
  <diagram name="Pagina-1" id="gMacFsR6ciiGGY7DcOXg">
    <mxGraphModel dx="472" dy="855" grid="1" gridSize="10" guides="1" tooltips="1" connect="1" arrows="1" fold="1" page="1" pageScale="1" pageWidth="827" pageHeight="1169" math="0" shadow="0">
      <root>
        <mxCell id="0" />
        <mxCell id="1" parent="0" />
        <mxCell id="Mzl9VSNGsijEhwGPSrqK-4" style="rounded=0;orthogonalLoop=1;jettySize=auto;html=1;" edge="1" parent="1" source="Mzl9VSNGsijEhwGPSrqK-6" target="Mzl9VSNGsijEhwGPSrqK-11">
          <mxGeometry relative="1" as="geometry">
            <Array as="points" />
          </mxGeometry>
        </mxCell>
        <mxCell id="Mzl9VSNGsijEhwGPSrqK-5" value="t1_A_B" style="edgeLabel;html=1;align=center;verticalAlign=middle;resizable=0;points=[];" vertex="1" connectable="0" parent="Mzl9VSNGsijEhwGPSrqK-4">
          <mxGeometry x="0.05" y="-2" relative="1" as="geometry">
            <mxPoint x="-2" y="-12" as="offset" />
          </mxGeometry>
        </mxCell>
        <mxCell id="Mzl9VSNGsijEhwGPSrqK-6" value="q0" style="ellipse;whiteSpace=wrap;html=1;aspect=fixed;" vertex="1" parent="1">
          <mxGeometry x="240" y="160" width="40" height="40" as="geometry" />
        </mxCell>
        <mxCell id="Mzl9VSNGsijEhwGPSrqK-7" style="rounded=0;orthogonalLoop=1;jettySize=auto;html=1;edgeStyle=orthogonalEdgeStyle;" edge="1" parent="1" source="Mzl9VSNGsijEhwGPSrqK-11" target="Mzl9VSNGsijEhwGPSrqK-6">
          <mxGeometry relative="1" as="geometry">
            <Array as="points">
              <mxPoint x="380" y="240" />
              <mxPoint x="260" y="240" />
            </Array>
          </mxGeometry>
        </mxCell>
        <mxCell id="Mzl9VSNGsijEhwGPSrqK-8" value="t2_B_A" style="edgeLabel;html=1;align=center;verticalAlign=middle;resizable=0;points=[];" vertex="1" connectable="0" parent="Mzl9VSNGsijEhwGPSrqK-7">
          <mxGeometry x="0.0866" y="-1" relative="1" as="geometry">
            <mxPoint x="9" y="-9" as="offset" />
          </mxGeometry>
        </mxCell>
        <mxCell id="Mzl9VSNGsijEhwGPSrqK-13" style="edgeStyle=orthogonalEdgeStyle;rounded=0;orthogonalLoop=1;jettySize=auto;html=1;" edge="1" parent="1" source="Mzl9VSNGsijEhwGPSrqK-11" target="Mzl9VSNGsijEhwGPSrqK-12">
          <mxGeometry relative="1" as="geometry" />
        </mxCell>
        <mxCell id="Mzl9VSNGsijEhwGPSrqK-14" value="t3_B_A" style="edgeLabel;html=1;align=center;verticalAlign=middle;resizable=0;points=[];" vertex="1" connectable="0" parent="Mzl9VSNGsijEhwGPSrqK-13">
          <mxGeometry x="0.05" y="-1" relative="1" as="geometry">
            <mxPoint x="-2" y="-11" as="offset" />
          </mxGeometry>
        </mxCell>
        <mxCell id="Mzl9VSNGsijEhwGPSrqK-11" value="q1" style="ellipse;whiteSpace=wrap;html=1;aspect=fixed;" vertex="1" parent="1">
          <mxGeometry x="360" y="160" width="40" height="40" as="geometry" />
        </mxCell>
        <mxCell id="Mzl9VSNGsijEhwGPSrqK-12" value="q2" style="ellipse;whiteSpace=wrap;html=1;aspect=fixed;" vertex="1" parent="1">
          <mxGeometry x="480" y="160" width="40" height="40" as="geometry" />
        </mxCell>
      </root>
    </mxGraphModel>
  </diagram>
</mxfile>
